<?xml version="1.0" encoding="utf-8"?>
<!-- Generator: Adobe Illustrator 21.1.0, SVG Export Plug-In . SVG Version: 6.00 Build 0)  -->
<svg version="1.1" id="Layer_1" xmlns="http://www.w3.org/2000/svg" xmlns:xlink="http://www.w3.org/1999/xlink" x="0px" y="0px"
	 viewBox="0 0 20 20" style="enable-background:new 0 0 20 20;" xml:space="preserve">
<style type="text/css">
	.st0{fill:#10D345;}
	.st1{enable-background:new    ;}
	.st2{fill:#FFFFFF;}
</style>
<title>ic/AC</title>
<desc>Created with Sketch.</desc>
<g id="Visual-design">
	<g id="_x33_.3.4" transform="translate(-999.000000, -537.000000)">
		<g id="Group-8" transform="translate(237.000000, 148.000000)">
			<g id="Row-Copy-5" transform="translate(0.000000, 378.000000)">
				<g id="ic_x2F_checked_1_" transform="translate(762.000000, 11.000000)">
					<g id="ic_x2F_AC">
						<g id="ic_x2F_info-copy">
							<g id="ic_x2F_checked">
								<g id="Stroke-1">
									<path class="st0" d="M19.7,10c0,5.3-4.3,9.7-9.7,9.7c-5.3,0-9.7-4.3-9.7-9.7S4.7,0.3,10,0.3C15.3,0.3,19.7,4.7,19.7,10z"/>
								</g>
							</g>
							<g class="st1">
								<path class="st2" d="M5.3,13l2.2-5.7h0.8l2.3,5.7H9.8l-0.7-1.7H6.8L6.1,13H5.3z M7,10.6h1.9L8.3,9.1C8.2,8.6,8,8.2,7.9,7.9
									C7.9,8.2,7.8,8.6,7.6,9L7,10.6z"/>
								<path class="st2" d="M14.1,11.5l0.7,0.1c-0.1,0.5-0.3,0.8-0.6,1.1c-0.3,0.3-0.7,0.4-1.1,0.4c-0.6,0-1-0.2-1.4-0.6
									c-0.3-0.4-0.5-0.9-0.5-1.6c0-0.4,0.1-0.8,0.2-1.2S11.7,9.2,12,9c0.3-0.2,0.6-0.3,1-0.3c0.5,0,0.8,0.1,1.1,0.3
									c0.3,0.2,0.5,0.6,0.6,1L14,10.2c-0.1-0.3-0.2-0.5-0.3-0.6c-0.2-0.1-0.4-0.2-0.6-0.2c-0.4,0-0.6,0.1-0.9,0.4
									c-0.2,0.3-0.3,0.7-0.3,1.2c0,0.6,0.1,1,0.3,1.2c0.2,0.3,0.5,0.4,0.8,0.4c0.3,0,0.5-0.1,0.7-0.3C13.9,12.1,14,11.8,14.1,11.5
									z"/>
							</g>
						</g>
					</g>
				</g>
			</g>
		</g>
	</g>
</g>
</svg>
