<?xml version="1.0" encoding="utf-8"?>
<!-- Generator: Adobe Illustrator 21.1.0, SVG Export Plug-In . SVG Version: 6.00 Build 0)  -->
<svg version="1.1" id="Layer_1" xmlns="http://www.w3.org/2000/svg" xmlns:xlink="http://www.w3.org/1999/xlink" x="0px" y="0px"
	 viewBox="0 0 16 16" style="enable-background:new 0 0 16 16;" xml:space="preserve">
<style type="text/css">
	.st0{fill:#FFFFFF;}
	.st1{fill:#11D245;}
	.st2{opacity:0.7;}
	.st3{fill:#0FA637;}
	.st4{enable-background:new    ;}
	.st5{fill:#333333;}
</style>
<g>
	<g id="path-1">
		<path class="st0" d="M3.5,12.5C1,10,1,6,3.5,3.5C6,1,10,1,12.5,3.5c1.2,1.2,1.9,2.9,1.9,4.5s-0.6,3.3-1.9,4.5C10,15,6,15,3.5,12.5
			z"/>
	</g>
</g>
<title>ic/AC in progress</title>
<desc>Created with Sketch.</desc>
<g id="Support" transform="translate(-200.000000, -140.000000)">
	<g id="ic_x2F_AC-in-progress" transform="translate(200.000000, 140.000000)">
		<g id="ic_x2F_missing-progress">
			<g id="Stroke-1">
				<path class="st1" d="M2.3,13.7c-3.1-3.1-3.1-8.2,0-11.3c3.1-3.1,8.2-3.1,11.3,0c3.1,3.1,3.1,8.2,0,11.3
					C10.5,16.8,5.5,16.8,2.3,13.7z"/>
			</g>
			<g id="Rectangle-5" transform="translate(0.800000, 0.800000)">
				<g id="Mask" class="st2">
					<g>
						<g id="path-1_1_">
							<path class="st3" d="M2.7,11.7c-2.5-2.5-2.5-6.6,0-9.1c2.5-2.5,6.6-2.5,9.1,0c1.2,1.2,1.9,2.9,1.9,4.5s-0.6,3.3-1.9,4.5
								C9.2,14.2,5.2,14.2,2.7,11.7z"/>
						</g>
					</g>
					<g>
						<path d="M7.2,13.6c-1.7,0-3.3-0.7-4.5-1.9l0,0l0,0c-1.2-1.2-1.9-2.8-1.9-4.5c0-1.7,0.7-3.3,1.9-4.5c1.2-1.2,2.8-1.9,4.5-1.9
							c1.7,0,3.3,0.7,4.5,1.9c1.2,1.2,1.9,2.8,1.9,4.5s-0.7,3.3-1.9,4.5C10.5,12.9,8.9,13.6,7.2,13.6z M7.2,1.6
							c-1.5,0-2.9,0.6-4,1.6c-1.1,1.1-1.6,2.5-1.6,4c0,1.5,0.6,2.9,1.6,4l0,0c1.1,1.1,2.5,1.6,4,1.6c1.5,0,2.9-0.6,4-1.6
							c1.1-1.1,1.6-2.5,1.6-4s-0.6-2.9-1.6-4C10.1,2.2,8.7,1.6,7.2,1.6z"/>
					</g>
				</g>
				<g>
					<polygon class="st1" points="1.8,2 7.2,0.1 7.2,8 0,8 					"/>
				</g>
			</g>
		</g>
		<g class="st4">
			<path class="st5" d="M8.2,10L7.7,8.7H4.9L4.4,10H3.8L6,4.7h0.6L8.8,10H8.2z M6.3,5.2L5,8.3h2.5L6.3,5.2z"/>
			<path class="st5" d="M9.4,8.1c0-1.1,0.7-2,1.9-2c0.7,0,1.1,0.3,1.4,0.7L12.4,7c-0.3-0.4-0.6-0.5-1.1-0.5c-0.9,0-1.5,0.7-1.5,1.6
				c0,0.9,0.6,1.7,1.5,1.7c0.4,0,0.8-0.2,1.1-0.5l0.3,0.3c-0.3,0.4-0.7,0.7-1.4,0.7C10.2,10.1,9.4,9.2,9.4,8.1z"/>
		</g>
	</g>
</g>
</svg>
