<?xml version="1.0" encoding="utf-8"?>
<!-- Generator: Adobe Illustrator 21.1.0, SVG Export Plug-In . SVG Version: 6.00 Build 0)  -->
<svg version="1.1" id="Layer_1" xmlns="http://www.w3.org/2000/svg" xmlns:xlink="http://www.w3.org/1999/xlink" x="0px" y="0px"
	 viewBox="0 0 17 17" style="enable-background:new 0 0 17 17;" xml:space="preserve">
<style type="text/css">
	.st0{fill:#221F20;}
</style>
<title>ic/calendar</title>
<desc>Created with Sketch.</desc>
<g>
	<path class="st0" d="M13.3,2c-0.2,0-0.4,0.2-0.4,0.4s0.2,0.4,0.4,0.4c1.2,0,2.2,0.8,2.3,1.9H1.8c0.1-1.1,1.1-1.9,2.3-1.9
		c0.2,0,0.4-0.2,0.4-0.4S4.3,2,4.1,2C2.4,2,1,3.3,1,4.9v8.6c0,1.6,1.4,2.9,3.1,2.9h9.2c1.7,0,3.1-1.3,3.1-2.9V4.9
		C16.4,3.3,15,2,13.3,2z M13.3,15.6H4.1c-1.3,0-2.3-1-2.3-2.2V5.4h13.9v8.1C15.6,14.7,14.6,15.6,13.3,15.6z"/>
	<path class="st0" d="M7,2.4h3.4c0.1,0,0.2,0,0.2-0.1V4c0,0.2,0.2,0.4,0.4,0.4s0.4-0.2,0.4-0.4V1c0-0.2-0.2-0.4-0.4-0.4
		S10.6,0.8,10.6,1v0.7c-0.1-0.1-0.1-0.1-0.2-0.1H7C6.8,1.6,6.6,1.8,6.6,2S6.8,2.4,7,2.4z"/>
	<path class="st0" d="M12.9,8.6H4.5C4.3,8.6,4.1,8.8,4.1,9s0.2,0.4,0.4,0.4h8.4c0.2,0,0.4-0.2,0.4-0.4S13.1,8.6,12.9,8.6z"/>
	<path class="st0" d="M10.5,10.6H7c-0.2,0-0.4,0.2-0.4,0.4s0.2,0.4,0.4,0.4h3.6c0.2,0,0.4-0.2,0.4-0.4S10.7,10.6,10.5,10.6z"/>
	<path class="st0" d="M5,4.3c0.2,0,0.4-0.2,0.4-0.4V1c0-0.2-0.2-0.4-0.4-0.4S4.6,0.8,4.6,1v3C4.6,4.2,4.8,4.3,5,4.3z"/>
</g>
</svg>
