<?xml version="1.0" encoding="utf-8"?>
<!-- Generator: Adobe Illustrator 21.1.0, SVG Export Plug-In . SVG Version: 6.00 Build 0)  -->
<svg version="1.1" id="Layer_1" xmlns="http://www.w3.org/2000/svg" xmlns:xlink="http://www.w3.org/1999/xlink" x="0px" y="0px"
	 viewBox="0 0 10 9.5" style="enable-background:new 0 0 10 9.5;" xml:space="preserve">
<style type="text/css">
	.st0{opacity:0.6;}
	.st1{fill:#fff;}
</style>
<title>Group 9</title>
<desc>Created with Sketch.</desc>
<g class="st0">
	<path class="st1" d="M3.7,4.1C3.8,4.2,4,4.3,4.1,4.3s0.3,0,0.4-0.1c0.2-0.2,0.2-0.5,0-0.7L1.4,0.3c-0.2-0.2-0.5-0.2-0.7,0
		C0.5,0.5,0.5,0.8,0.6,1L3.7,4.1z"/>
	<path class="st1" d="M5.7,4.7L9.4,1c0.2-0.2,0.2-0.5,0-0.7c-0.2-0.2-0.5-0.2-0.7,0l-4,4c0,0,0,0,0,0l-4,4C0.5,8.5,0.5,8.8,0.6,9
		C0.7,9.1,0.9,9.2,1,9.2s0.3,0,0.4-0.1L5,5.4L8.6,9C8.7,9.1,8.9,9.2,9,9.2s0.3,0,0.4-0.1c0.2-0.2,0.2-0.5,0-0.7L5.7,4.7z"/>
</g>
</svg>
