<?xml version="1.0" encoding="utf-8"?>
<!-- Generator: Adobe Illustrator 21.1.0, SVG Export Plug-In . SVG Version: 6.00 Build 0)  -->
<svg version="1.1" id="Layer_1" xmlns="http://www.w3.org/2000/svg" xmlns:xlink="http://www.w3.org/1999/xlink" x="0px" y="0px"
	 viewBox="0 0 26 26" style="enable-background:new 0 0 26 26;" xml:space="preserve">
<style type="text/css">
	.st0{fill:#221F20;}
</style>
<title>timer</title>
<desc>Created with Sketch.</desc>
<g id="Visual-design">
	<g id="_x34_.1.2-copy" transform="translate(-1225.000000, -116.000000)">
		<g id="Booking-details" transform="translate(838.000000, 59.000000)">
			<g id="bkn-history" transform="translate(29.000000, 58.000000)">
				<g id="timer" transform="translate(359.000000, 0.000000)">
					<g id="Page-1">
						<g id="Stroke-1">
							<path class="st0" d="M12.1,24.7C5.2,24.7-0.5,19-0.5,12.1c0-6.9,5.7-12.6,12.6-12.6c6.9,0,12.6,5.7,12.6,12.6
								C24.7,19,19,24.7,12.1,24.7z M12.1,0.5C5.7,0.5,0.5,5.7,0.5,12.1s5.2,11.6,11.6,11.6s11.6-5.2,11.6-11.6S18.5,0.5,12.1,0.5z"
								/>
						</g>
						<g id="Stroke-3">
							<path class="st0" d="M17,17.8c-0.1,0-0.3,0-0.4-0.1l-5-5c-0.1-0.1-0.1-0.2-0.1-0.4V7c0-0.3,0.2-0.5,0.5-0.5s0.5,0.2,0.5,0.5
								v5.1l4.8,4.8c0.2,0.2,0.2,0.5,0,0.7C17.2,17.8,17.1,17.8,17,17.8z"/>
						</g>
					</g>
				</g>
			</g>
		</g>
	</g>
</g>
</svg>
