<?xml version="1.0" encoding="utf-8"?>
<!-- Generator: Adobe Illustrator 21.1.0, SVG Export Plug-In . SVG Version: 6.00 Build 0)  -->
<svg version="1.1" id="Layer_1" xmlns="http://www.w3.org/2000/svg" xmlns:xlink="http://www.w3.org/1999/xlink" x="0px" y="0px"
	 viewBox="0 0 25.3 25.3" style="enable-background:new 0 0 25.3 25.3;" xml:space="preserve">
<style type="text/css">
	.st0{fill:#333333;}
</style>
<title>Group 5</title>
<desc>Created with Sketch.</desc>
<g id="Visual-design">
	<g id="_x34_.1.2-copy" transform="translate(-1227.000000, -166.000000)">
		<g id="Booking-details" transform="translate(838.000000, 59.000000)">
			<g id="neral" transform="translate(34.000000, 107.000000)">
				<g id="General">
					<g id="ic.un-check-global-copy-2" transform="translate(355.000000, 0.000000)">
						<g id="Group-5">
							<g id="ic.un-check">
								<path class="st0" d="M12.6,25.1c-6.9,0-12.5-5.6-12.5-12.5S5.7,0.1,12.6,0.1s12.5,5.6,12.5,12.5S19.5,25.1,12.6,25.1z
									 M12.6,1.1C6.3,1.1,1.1,6.3,1.1,12.6c0,6.3,5.2,11.5,11.5,11.5c6.3,0,11.5-5.2,11.5-11.5C24.1,6.3,19,1.1,12.6,1.1z"/>
							</g>
							<g id="Line">
								<rect x="9.1" y="12.1" class="st0" width="8" height="1"/>
							</g>
						</g>
					</g>
				</g>
			</g>
		</g>
	</g>
</g>
</svg>
