<?xml version="1.0" encoding="utf-8"?>
<!-- Generator: Adobe Illustrator 21.1.0, SVG Export Plug-In . SVG Version: 6.00 Build 0)  -->
<svg version="1.1" id="Layer_1" xmlns="http://www.w3.org/2000/svg" xmlns:xlink="http://www.w3.org/1999/xlink" x="0px" y="0px"
	 viewBox="0 0 38.9 39.1" style="enable-background:new 0 0 38.9 39.1;" xml:space="preserve">
<style type="text/css">
	.st0{fill:#FFFFFF;}
	.st1{fill:#CACACA;}
	.st2{fill:#221F20;}
</style>
<title>Filter</title>
<desc>Created with Sketch.</desc>
<g id="path-1">
	<path class="st0" d="M19.4,0.6L19.4,0.6c10.4,0,18.8,8.4,18.8,18.8v0.4c0,10.4-8.4,18.8-18.8,18.8l0,0C9,38.6,0.6,30.1,0.6,19.7
		v-0.4C0.6,9,9,0.6,19.4,0.6z"/>
</g>
<path class="st1" d="M19.4,38.6c-10.4,0-18.8-8.4-18.8-18.8v-0.4C0.6,9,9.1,0.6,19.4,0.6c10.4,0,18.8,8.4,18.8,18.8v0.4
	C38.3,30.1,29.8,38.6,19.4,38.6z M19.4,1.6c-9.8,0-17.8,8-17.8,17.8v0.4c0,9.8,8,17.8,17.8,17.8s17.8-8,17.8-17.8v-0.4
	C37.3,9.6,29.3,1.6,19.4,1.6z"/>
<path class="st2" d="M26.3,14.9h-7.7c-0.2,0-0.4-0.2-0.4-0.4s0.2-0.4,0.4-0.4h7.7c0.2,0,0.3,0.2,0.3,0.4S26.5,14.9,26.3,14.9z"/>
<path class="st2" d="M26.3,19.9h-2.6c-0.2,0-0.3-0.2-0.3-0.4s0.2-0.4,0.3-0.4h2.6c0.2,0,0.3,0.2,0.3,0.4S26.5,19.9,26.3,19.9z"/>
<path class="st2" d="M26.3,24.9h-8.3c-0.2,0-0.4-0.2-0.4-0.3s0.2-0.3,0.4-0.3h8.3c0.2,0,0.3,0.2,0.3,0.3S26.5,24.9,26.3,24.9z"/>
<g>
	<path class="st2" d="M11.9,14.9h2.8c0.1,0.4,0.5,0.6,0.9,0.6c0.6,0,1-0.4,1-1c0-0.6-0.4-1-1-1c-0.4,0-0.8,0.3-0.9,0.6h-2.8
		c-0.2,0-0.4,0.2-0.4,0.4S11.7,14.9,11.9,14.9z"/>
	<path class="st2" d="M20.6,18.6c-0.4,0-0.8,0.3-0.9,0.6h-7.8c-0.2,0-0.4,0.2-0.4,0.4s0.2,0.4,0.4,0.4h7.8c0.1,0.4,0.5,0.6,0.9,0.6
		c0.6,0,1-0.4,1-1C21.6,19,21.2,18.6,20.6,18.6z"/>
	<path class="st2" d="M15.6,23.6c-0.4,0-0.8,0.3-0.9,0.7c0,0-0.1,0-0.1,0h-2.6c-0.2,0-0.4,0.2-0.4,0.3s0.2,0.3,0.4,0.3h2.6
		c0.1,0,0.1,0,0.1,0c0.1,0.4,0.5,0.7,0.9,0.7c0.6,0,1-0.4,1-1C16.6,24,16.2,23.6,15.6,23.6z"/>
</g>
</svg>
