<?xml version="1.0" encoding="utf-8"?>
<!-- Generator: Adobe Illustrator 21.1.0, SVG Export Plug-In . SVG Version: 6.00 Build 0)  -->
<svg version="1.1" id="Layer_1" xmlns="http://www.w3.org/2000/svg" xmlns:xlink="http://www.w3.org/1999/xlink" x="0px" y="0px"
	 viewBox="0 0 38.4 38.7" style="enable-background:new 0 0 38.4 38.7;" xml:space="preserve">
<style type="text/css">
	.st0{fill:#F1F1F1;}
	.st1{fill:#CACACA;}
	.st2{fill:#221F20;}
</style>
<title>ic/filter</title>
<desc>Created with Sketch.</desc>
<g>
	<g id="path-1">
		<path class="st0" d="M19.2,0.3L19.2,0.3C29.6,0.3,38,8.8,38,19.2v0.4c0,10.4-8.4,18.8-18.8,18.8l0,0c-10.4,0-18.8-8.4-18.8-18.8
			v-0.4C0.4,8.8,8.8,0.3,19.2,0.3z"/>
	</g>
</g>
<g>
	<path class="st1" d="M19.2,38.3c-10.4,0-18.8-8.4-18.8-18.8v-0.4C0.4,8.8,8.8,0.3,19.2,0.3C29.6,0.3,38,8.8,38,19.2v0.4
		C38,29.9,29.6,38.3,19.2,38.3z M19.2,1.3c-9.8,0-17.8,8-17.8,17.8v0.4c0,9.8,8,17.8,17.8,17.8S37,29.4,37,19.5v-0.4
		C37,9.3,29,1.3,19.2,1.3z"/>
</g>
<path class="st2" d="M26.1,15.7h-7.7c-0.2,0-0.4-0.2-0.4-0.4s0.2-0.4,0.4-0.4h7.7c0.2,0,0.3,0.2,0.3,0.4S26.3,15.7,26.1,15.7z"/>
<path class="st2" d="M26.1,20.7h-2.6c-0.2,0-0.3-0.2-0.3-0.3s0.2-0.4,0.3-0.4h2.6c0.2,0,0.3,0.2,0.3,0.4S26.3,20.7,26.1,20.7z"/>
<path class="st2" d="M26.1,25.7h-8.3c-0.2,0-0.4-0.2-0.4-0.3s0.2-0.3,0.4-0.3h8.3c0.2,0,0.3,0.2,0.3,0.3S26.3,25.7,26.1,25.7z"/>
<g>
	<path class="st2" d="M11.6,15.7h2.8c0.1,0.4,0.5,0.6,0.9,0.6c0.6,0,1-0.4,1-1c0-0.6-0.4-1-1-1c-0.4,0-0.8,0.3-0.9,0.6h-2.8
		c-0.2,0-0.4,0.2-0.4,0.4S11.5,15.7,11.6,15.7z"/>
	<path class="st2" d="M20.4,19.3c-0.4,0-0.8,0.3-0.9,0.6h-7.8c-0.2,0-0.4,0.2-0.4,0.4s0.2,0.3,0.4,0.3h7.8c0.1,0.4,0.5,0.7,0.9,0.7
		c0.6,0,1-0.4,1-1C21.4,19.8,20.9,19.3,20.4,19.3z"/>
	<path class="st2" d="M15.4,24.3c-0.4,0-0.8,0.3-0.9,0.7c0,0-0.1,0-0.1,0h-2.6c-0.2,0-0.4,0.2-0.4,0.3s0.2,0.3,0.4,0.3h2.6
		c0.1,0,0.1,0,0.1,0c0.1,0.4,0.5,0.7,0.9,0.7c0.6,0,1-0.4,1-1C16.4,24.8,15.9,24.3,15.4,24.3z"/>
</g>
</svg>
