<?xml version="1.0" encoding="utf-8"?>
<!-- Generator: Adobe Illustrator 21.1.0, SVG Export Plug-In . SVG Version: 6.00 Build 0)  -->
<svg version="1.1" id="Layer_1" xmlns="http://www.w3.org/2000/svg" xmlns:xlink="http://www.w3.org/1999/xlink" x="0px" y="0px"
	 viewBox="0 0 20.4 20.4" style="enable-background:new 0 0 20.4 20.4;" xml:space="preserve">
<style type="text/css">
	.st0{fill:#FFFFFF;}
	.st1{fill:#EAD150;}
	.st2{opacity:0.6;}
	.st3{fill:#CFB633;}
</style>
<g>
	<g id="path-1">
		<path class="st0" d="M4.5,15.9c-3.1-3.1-3.1-8.2,0-11.3s8.2-3.1,11.3,0c1.6,1.5,2.4,3.6,2.4,5.6s-0.8,4.1-2.3,5.7
			C12.7,19,7.7,19,4.5,15.9z"/>
	</g>
</g>
<title>ic/AC Copy 4</title>
<desc>Created with Sketch.</desc>
<g id="Stroke-1">
	<path class="st1" d="M3.1,17.3C-0.8,13.4-0.8,7,3.1,3.1s10.3-3.9,14.2,0s3.9,10.2,0,14.1C13.4,21.2,7,21.2,3.1,17.3z"/>
</g>
<g id="Mask" class="st2">
	<g>
		<g id="path-1_1_">
			<path class="st3" d="M4.5,15.9c-3.1-3.1-3.1-8.2,0-11.3s8.2-3.1,11.3,0c1.6,1.5,2.4,3.6,2.4,5.6s-0.8,4.1-2.3,5.7
				C12.7,19,7.7,19,4.5,15.9z"/>
		</g>
	</g>
	<g>
		<path d="M10.2,18.2c-2,0-4.1-0.8-5.7-2.3l0,0c-3.1-3.1-3.1-8.2,0-11.3s8.2-3.1,11.3,0c1.6,1.5,2.4,3.5,2.4,5.6s-0.8,4.1-2.3,5.7
			C14.3,17.4,12.2,18.2,10.2,18.2z M5.1,15.3c2.8,2.8,7.4,2.8,10.2,0c1.4-1.4,2.1-3.2,2.1-5.1s-0.7-3.7-2.1-5.1
			c-2.8-2.8-7.4-2.8-10.2,0S2.3,12.5,5.1,15.3L5.1,15.3z"/>
	</g>
</g>
<g>
	<polygon class="st1" points="3,3.3 10.2,0.5 10.2,11.2 0.4,11.2 	"/>
</g>
<path d="M10.2,11.6c-0.3,0-0.5-0.2-0.5-0.5V5.5C9.7,5.2,9.9,5,10.2,5s0.5,0.2,0.5,0.5v5.6C10.7,11.4,10.5,11.6,10.2,11.6z"/>
<path d="M10.2,15.4c-0.3,0-0.5-0.2-0.5-0.5v-0.6c0-0.3,0.2-0.5,0.5-0.5s0.5,0.2,0.5,0.5v0.6C10.7,15.2,10.5,15.4,10.2,15.4z"/>
</svg>
