<?xml version="1.0" encoding="utf-8"?>
<!-- Generator: Adobe Illustrator 21.1.0, SVG Export Plug-In . SVG Version: 6.00 Build 0)  -->
<svg version="1.1" id="Layer_1" xmlns="http://www.w3.org/2000/svg" xmlns:xlink="http://www.w3.org/1999/xlink" x="0px" y="0px"
	 viewBox="0 0 20.8 20.8" style="enable-background:new 0 0 20.8 20.8;" xml:space="preserve">
<style type="text/css">
	.st0{fill:#CACACA;}
</style>
<title>Logout</title>
<desc>Created with Sketch.</desc>
<g id="Visual-design">
	<g id="profile" transform="translate(-19.000000, -57.000000)">
		<g id="Logout" transform="translate(19.000000, 57.000000)">
			<g id="BG-Copy">
				<path class="st0" d="M10.4,20.4c-5.5,0-10-4.5-10-10c0-5.5,4.5-10,10-10c5.5,0,10,4.5,10,10C20.4,15.9,15.9,20.4,10.4,20.4z
					 M10.4,0.9c-5.2,0-9.5,4.3-9.5,9.5s4.3,9.5,9.5,9.5s9.5-4.3,9.5-9.5S15.6,0.9,10.4,0.9z"/>
			</g>
			<g id="Shape">
				<path d="M9.5,15.1c0-0.1-0.1-0.2-0.2-0.2H6.8V5.8h2.5c0.1,0,0.2-0.1,0.2-0.2S9.4,5.5,9.3,5.5H6.5v9.8h2.9
					C9.4,15.3,9.5,15.2,9.5,15.1z"/>
			</g>
			<g id="Shape_1_">
				<path d="M11.4,12.9c0.1,0.1,0.2,0.1,0.2,0l2.2-2.4c0,0,0,0,0,0c0,0,0,0,0,0c0,0,0-0.1,0-0.1c0,0,0,0,0,0c0,0,0,0,0,0l-2.2-2.4
					c0-0.1-0.1-0.1-0.2-0.1c-0.1,0-0.1,0.1-0.1,0.1c0,0.1,0,0.1,0.1,0.2l1.9,2.1H9c-0.1,0-0.2,0.1-0.2,0.2s0.1,0.2,0.2,0.2h4.3
					l-1.9,2.1C11.3,12.7,11.3,12.8,11.4,12.9z"/>
			</g>
		</g>
	</g>
</g>
</svg>
