<?xml version="1.0" encoding="utf-8"?>
<!-- Generator: Adobe Illustrator 21.1.0, SVG Export Plug-In . SVG Version: 6.00 Build 0)  -->
<svg version="1.1" id="Layer_1" xmlns="http://www.w3.org/2000/svg" xmlns:xlink="http://www.w3.org/1999/xlink" x="0px" y="0px"
	 viewBox="0 0 25.3 25.3" style="enable-background:new 0 0 25.3 25.3;" xml:space="preserve">
<style type="text/css">
	.st0{fill:#333333;}
</style>
<title>Group 5</title>
<desc>Created with Sketch.</desc>
<g>
	<path class="st0" d="M12.6,0.2C5.7,0.2,0.1,5.8,0.1,12.7c0,6.9,5.6,12.5,12.5,12.5c6.9,0,12.5-5.6,12.5-12.5
		C25.1,5.8,19.5,0.2,12.6,0.2z M12.6,24.1C6.4,24.1,1.1,19,1.1,12.7c0-6.3,5.2-11.5,11.5-11.5c6.4,0,11.5,5.2,11.5,11.5
		C24.1,19,18.9,24.1,12.6,24.1z"/>
	<polygon class="st0" points="13.1,8.7 12.1,8.7 12.1,12.2 8.6,12.2 8.6,13.2 12.1,13.2 12.1,16.7 13.1,16.7 13.1,13.2 16.6,13.2 
		16.6,12.2 13.1,12.2 	"/>
</g>
</svg>
