<?xml version="1.0" encoding="utf-8"?>
<!-- Generator: Adobe Illustrator 21.1.0, SVG Export Plug-In . SVG Version: 6.00 Build 0)  -->
<svg version="1.1" id="Layer_1" xmlns="http://www.w3.org/2000/svg" xmlns:xlink="http://www.w3.org/1999/xlink" x="0px" y="0px"
	 viewBox="0 0 20.6 20.6" style="enable-background:new 0 0 20.6 20.6;" xml:space="preserve">
<style type="text/css">
	.st0{fill:#10D345;}
	.st1{fill:#FFFFFF;}
</style>
<title>ic/AC</title>
<desc>Created with Sketch.</desc>
<g id="Visual-design">
	<g id="Status" transform="translate(-39.000000, -13.000000)">
		<g id="ic_x2F_AC">
			<g transform="translate(39.000000, 13.000000)">
				<g id="ic_x2F_checked">
					<path id="Stroke-1" class="st0" d="M20.3,10.3c0,5.5-4.5,10-10,10c-5.5,0-10-4.5-10-10s4.5-10,10-10
						C15.8,0.3,20.3,4.8,20.3,10.3z"/>
				</g>
				<path id="Mc" class="st1" d="M11,13.3V7.6h-0.8l-1.9,4.7H8.2L6.2,7.6H5.4v5.6h0.7V9h0l1.8,4.3h0.6L10.3,9h0v4.3H11z M16.2,10.4
					c-0.1-0.4-0.2-0.7-0.5-1S14.9,9,14.4,9c-0.6,0-1.1,0.2-1.4,0.6s-0.5,0.9-0.5,1.6c0,0.7,0.2,1.2,0.5,1.6c0.4,0.4,0.8,0.6,1.4,0.6
					c0.5,0,0.9-0.1,1.2-0.4s0.5-0.6,0.5-1h-0.7c-0.1,0.2-0.2,0.4-0.4,0.5s-0.4,0.2-0.7,0.2c-0.4,0-0.7-0.1-0.9-0.4s-0.3-0.7-0.3-1.2
					c0-0.5,0.1-0.9,0.3-1.1s0.5-0.4,0.9-0.4c0.3,0,0.5,0.1,0.7,0.2s0.3,0.3,0.4,0.5H16.2z"/>
			</g>
		</g>
	</g>
</g>
</svg>
