<?xml version="1.0" encoding="UTF-8"?>
<svg width="20px" height="20px" viewBox="0 0 20 20" version="1.1" xmlns="http://www.w3.org/2000/svg" xmlns:xlink="http://www.w3.org/1999/xlink">
    <!-- Generator: Sketch 43.2 (39069) - http://www.bohemiancoding.com/sketch -->
    <title>info copy 2</title>
    <desc>Created with Sketch.</desc>
    <defs>
        <path d="M3.34327811,14.6567219 C0.218907297,11.5328844 0.218907297,6.46764892 3.34327811,3.34327811 C6.46711557,0.218907297 11.5323511,0.218907297 14.6567219,3.34327811 C16.219174,4.90546352 17.0004,6.95273176 17.0004,9 C17.0004,11.0472682 16.219174,13.0945365 14.6567219,14.6567219 C11.5323511,17.7810927 6.46764892,17.7810927 3.34327811,14.6567219 Z" id="path-1"></path>
    </defs>
    <g id="assets" stroke="none" stroke-width="1" fill="none" fill-rule="evenodd">
        <g id="info-copy-2">
            <g id="ic/missing">
                <g>
                    <g id="ic/missing-progress">
                        <path d="M2.92909764,17.0709024 C-0.976365879,13.1661055 -0.976365879,6.83456115 2.92909764,2.92909764 C6.83389446,-0.976365879 13.1654388,-0.976365879 17.0709024,2.92909764 C20.9770326,6.83456115 20.9770326,13.1654388 17.0709024,17.0709024 C13.1654388,20.9763659 6.83456115,20.9763659 2.92909764,17.0709024 Z" id="Stroke-1" fill="#11D245"></path>
                        <g id="Rectangle-5" transform="translate(1.000000, 1.000000)">
                            <mask id="mask-2" fill="white">
                                <use xlink:href="#path-1"></use>
                            </mask>
                            <g id="Mask" opacity="0.699999988">
                                <use fill="#0EA637" fill-rule="evenodd" xlink:href="#path-1"></use>
                                <path stroke="#000000" stroke-width="0.8" d="M3.62609668,14.373855 C0.65796375,11.4062288 0.65796375,6.59427789 3.62612082,3.62612082 C6.59377121,0.65796375 11.4057221,0.65796375 14.3738792,3.62612082 C15.8191854,5.07118037 16.6004,6.99714972 16.6004,9 C16.6004,11.0028503 15.8191854,12.9288196 14.3739033,14.373855 C11.4057181,17.3420403 6.59428192,17.3420403 3.62612082,14.3738792 L3.62609668,14.373855 Z"></path>
                            </g>
                            <polygon fill="#11D245" points="2.23841701 2.44370596 9 0.175132258 9 10 0.0233700503 10"></polygon>
                        </g>
                    </g>
                    <path d="M10.7040312,13 L10.7040312,7.36328125 L9.887625,7.36328125 L7.9579375,12.0273438 L7.8954375,12.0273438 L5.96575,7.36328125 L5.14934375,7.36328125 L5.14934375,13 L5.80559375,13 L5.80559375,8.6953125 L5.85246875,8.6953125 L7.6298125,12.9609375 L8.2235625,12.9609375 L10.0009062,8.6953125 L10.0477812,8.6953125 L10.0477812,13 L10.7040312,13 Z M15.8710937,10.078125 C15.8138018,9.70312312 15.6334651,9.38216279 15.3300781,9.11523438 C15.0266912,8.84830596 14.6184921,8.71484375 14.1054687,8.71484375 C13.5169241,8.71484375 13.0481788,8.91145637 12.6992187,9.3046875 C12.3502587,9.69791863 12.1757812,10.222653 12.1757812,10.8789062 C12.1757812,11.5481804 12.3509097,12.0813782 12.7011719,12.4785156 C13.051434,12.875653 13.5208304,13.0742188 14.109375,13.0742188 C14.6145859,13.0742188 15.0195297,12.9466159 15.3242187,12.6914062 C15.6289078,12.4361966 15.8111976,12.1158873 15.8710937,11.7304688 L15.1914062,11.7304688 C15.1289059,11.9674491 15.0032562,12.1497389 14.8144531,12.2773438 C14.6256501,12.4049486 14.3893243,12.46875 14.1054687,12.46875 C13.7304669,12.46875 13.4309907,12.3255223 13.2070312,12.0390625 C12.9830718,11.7526027 12.8710937,11.3658879 12.8710937,10.8789062 C12.8710937,10.4023414 12.9824208,10.0234389 13.2050781,9.7421875 C13.4277355,9.46093609 13.7278627,9.3203125 14.1054687,9.3203125 C14.4075536,9.3203125 14.6503897,9.39453051 14.8339844,9.54296875 C15.017579,9.69140699 15.1367185,9.86979063 15.1914062,10.078125 L15.8710937,10.078125 Z" id="Mc" fill="#333333"></path>
                </g>
            </g>
        </g>
    </g>
</svg>