<?xml version="1.0" encoding="utf-8"?>
<!-- Generator: Adobe Illustrator 21.1.0, SVG Export Plug-In . SVG Version: 6.00 Build 0)  -->
<svg version="1.1" id="Layer_1" xmlns="http://www.w3.org/2000/svg" xmlns:xlink="http://www.w3.org/1999/xlink" x="0px" y="0px"
	 viewBox="0 0 17 17" style="enable-background:new 0 0 17 17;" xml:space="preserve">
<style type="text/css">
	.st0{fill:#221F20;}
</style>
<title>Group</title>
<desc>Created with Sketch.</desc>
<path class="st0" d="M16.1,15.4L11,10.3c1.9-2.3,1.8-5.7-0.3-7.8c-2.3-2.3-6-2.3-8.2,0c-2.3,2.3-2.3,6,0,8.2
	c2.2,2.2,5.6,2.2,7.9,0.3l5.1,5.1c0.2,0.2,0.5,0.2,0.7,0C16.3,15.9,16.3,15.6,16.1,15.4z M3.2,10C1.3,8.1,1.3,5,3.2,3.2
	C5,1.3,8.1,1.3,10,3.2c1.9,1.9,1.9,4.9,0,6.8C8.1,11.9,5,11.9,3.2,10z"/>
</svg>
