<?xml version="1.0" encoding="utf-8"?>
<!-- Generator: Adobe Illustrator 21.1.0, SVG Export Plug-In . SVG Version: 6.00 Build 0)  -->
<svg version="1.1" id="Layer_1" xmlns="http://www.w3.org/2000/svg" xmlns:xlink="http://www.w3.org/1999/xlink" x="0px" y="0px"
	 viewBox="0 0 38.9 39.1" style="enable-background:new 0 0 38.9 39.1;" xml:space="preserve">
<style type="text/css">
	.st0{fill:#CACACA;}
	.st1{fill:#221F20;}
</style>
<g id="BG-Copy">
	<g>
		<path class="st0" d="M19.4,38.6c-10.4,0-18.8-8.4-18.8-18.8v-0.4C0.6,9,9.1,0.6,19.4,0.6c10.4,0,18.8,8.4,18.8,18.8v0.4
			C38.3,30.1,29.8,38.6,19.4,38.6z M19.4,1.6c-9.8,0-17.8,8-17.8,17.8v0.4c0,9.8,8,17.8,17.8,17.8s17.8-8,17.8-17.8v-0.4
			C37.3,9.6,29.3,1.6,19.4,1.6z"/>
	</g>
</g>
<path class="st1" d="M26.7,27l-5.1-5.1c1.9-2.3,1.8-5.7-0.3-7.8c-1.1-1.1-2.6-1.7-4.1-1.7s-3,0.6-4.1,1.7c-2.3,2.3-2.3,6,0,8.2
	c1.1,1.1,2.6,1.7,4.1,1.7c1.4,0,2.7-0.5,3.8-1.4l5.1,5.1c0.1,0.1,0.2,0.1,0.4,0.1s0.3,0,0.4-0.1C26.9,27.5,26.9,27.2,26.7,27z
	 M13.8,21.5c-1.9-1.9-1.9-4.9,0-6.8c0.9-0.9,2.1-1.4,3.4-1.4s2.5,0.5,3.4,1.4c1.9,1.9,1.9,4.9,0,6.8c-0.9,0.9-2.1,1.4-3.4,1.4
	S14.7,22.5,13.8,21.5z"/>
</svg>
