<?xml version="1.0" encoding="utf-8"?>
<!-- Generator: Adobe Illustrator 21.1.0, SVG Export Plug-In . SVG Version: 6.00 Build 0)  -->
<svg version="1.1" id="Layer_1" xmlns="http://www.w3.org/2000/svg" xmlns:xlink="http://www.w3.org/1999/xlink" x="0px" y="0px"
	 viewBox="0 0 30 30" style="enable-background:new 0 0 30 30;" xml:space="preserve">
<style type="text/css">
	.st0{fill:#333333;}
</style>
<title>ic/info</title>
<desc>Created with Sketch.</desc>
<g id="Visual-design">
	<g id="_x34_.1.4" transform="translate(-1238.000000, -859.000000)">
		<g id="Group-8" transform="translate(1176.000000, 859.000000)">
			<g id="ic_x2F_info" transform="translate(62.000000, 0.000000)">
				<g>
					<g id="Stroke-1">
						<path class="st0" d="M15,30c-4,0-7.8-1.6-10.6-4.4C1.5,22.8,0,19,0,15c0-4,1.6-7.8,4.4-10.6C7.2,1.5,11,0,15,0
							s7.8,1.6,10.6,4.4l0,0l0,0C28.5,7.2,30,11,30,15s-1.6,7.8-4.4,10.6C22.8,28.5,19,30,15,30z M15,1c-3.7,0-7.3,1.5-9.9,4.1
							C2.4,7.7,1,11.3,1,15s1.5,7.3,4.1,9.9C7.7,27.6,11.3,29,15,29s7.3-1.5,9.9-4.1c2.6-2.6,4.1-6.2,4.1-9.9c0-3.7-1.5-7.3-4.1-9.9
							l0,0C22.3,2.4,18.7,1,15,1z"/>
					</g>
					<g id="Stroke-3">
						<path class="st0" d="M15,21c-0.3,0-0.5-0.2-0.5-0.5v-5.8c0-0.3,0.2-0.5,0.5-0.5s0.5,0.2,0.5,0.5v5.8C15.5,20.8,15.3,21,15,21z
							"/>
					</g>
					<g id="Stroke-5">
						<path class="st0" d="M15,11.1c-0.3,0-0.5-0.2-0.5-0.5v-0.5c0-0.3,0.2-0.5,0.5-0.5s0.5,0.2,0.5,0.5v0.5
							C15.5,10.9,15.3,11.1,15,11.1z"/>
					</g>
				</g>
			</g>
		</g>
	</g>
</g>
</svg>
