<?xml version="1.0" encoding="utf-8"?>
<!-- Generator: Adobe Illustrator 21.1.0, SVG Export Plug-In . SVG Version: 6.00 Build 0)  -->
<svg version="1.1" id="Layer_1" xmlns="http://www.w3.org/2000/svg" xmlns:xlink="http://www.w3.org/1999/xlink" x="0px" y="0px"
	 viewBox="0 0 20 20" style="enable-background:new 0 0 20 20;" xml:space="preserve">
<style type="text/css">
	.st0{fill:#EAD150;}
</style>
<title>ic/missing</title>
<desc>Created with Sketch.</desc>
<g id="Symbols">
	<g id="ic_x2F_missing">
		<g>
			<g id="Stroke-1">
				<path class="st0" d="M3.2,16.8c-3.8-3.8-3.8-9.9,0-13.7c3.8-3.8,9.9-3.8,13.7,0c3.8,3.8,3.8,9.9,0,13.7
					C13.1,20.6,6.9,20.6,3.2,16.8z"/>
			</g>
			<g id="Stroke-3">
				<path d="M10,11.4c-0.3,0-0.5-0.2-0.5-0.5V5.3C9.5,5,9.7,4.8,10,4.8s0.5,0.2,0.5,0.5v5.6C10.5,11.2,10.3,11.4,10,11.4z"/>
			</g>
			<g id="Stroke-5">
				<path d="M10,15.2c-0.3,0-0.5-0.2-0.5-0.5v-0.6c0-0.3,0.2-0.5,0.5-0.5s0.5,0.2,0.5,0.5v0.6C10.5,15,10.3,15.2,10,15.2z"/>
			</g>
		</g>
	</g>
</g>
</svg>
