<?xml version="1.0" encoding="utf-8"?>
<!-- Generator: Adobe Illustrator 19.1.0, SVG Export Plug-In . SVG Version: 6.00 Build 0)  -->
<svg version="1.1" id="Layer_1" xmlns="http://www.w3.org/2000/svg" xmlns:xlink="http://www.w3.org/1999/xlink" x="0px" y="0px"
	 width="82px" height="82px" viewBox="0 0 82 82" enable-background="new 0 0 82 82" xml:space="preserve">
<g>
	<path fill="#FFFFFF" d="M11.376,13.064l-1.651,8.058c1.867-2.82,4.063-5.511,6.57-8.058H11.376z"/>
	<path fill="#FFFFFF" d="M13.709,29.915c-1.937,4.319-2.92,8.695-2.92,13.003c0,3.313,0.59,6.473,1.754,9.396
		c1.006,2.528,2.428,4.835,4.234,6.879h8.052c-1.13-0.722-2.171-1.559-3.116-2.506c-4.55-4.549-6.71-10.752-6.075-17.461
		c0.313-3.313,1.289-6.628,2.899-9.857c1.663-3.336,3.96-6.478,6.827-9.347c2.732-2.732,5.826-4.955,9.195-6.6
		c0.251-0.124,0.502-0.243,0.755-0.358H27.53c-1.765,1.294-3.454,2.74-5.047,4.335C18.676,21.206,15.723,25.417,13.709,29.915z"/>
	<path fill="#FFFFFF" d="M24.007,23.784h3.937c0.207-0.216,0.417-0.434,0.634-0.65c4.176-4.174,9.367-6.87,14.694-7.646l0.497-2.424
		h-4.293c-4.612,1.455-9.149,4.155-13.031,8.037C25.575,21.97,24.764,22.865,24.007,23.784z"/>
	<path fill="#FFFFFF" d="M48.54,43.006c2.735-2.736,4.241-5.882,4.241-8.863c0-2.294-0.869-4.371-2.511-6.016
		c-0.784-0.782-1.71-1.373-2.75-1.763l-0.527,2.578c0.52,0.284,0.994,0.635,1.41,1.051c1.44,1.44,2.135,3.418,1.963,5.572
		c-0.171,2.138-1.199,4.253-2.897,5.951c-1.031,1.031-2.255,1.85-3.545,2.406l-0.494,2.411C45.238,45.66,47.004,44.543,48.54,43.006
		z"/>
	<path fill="#FFFFFF" d="M54.308,34.144c0,3.386-1.664,6.919-4.688,9.942c-1.9,1.9-4.167,3.269-6.545,3.983l-0.581,2.833
		c3.062-0.814,6.084-2.594,8.644-5.156c6.647-6.645,7.653-15.663,2.338-20.98c-1.384-1.388-3.108-2.346-5.048-2.836l-0.602,2.933
		c1.34,0.464,2.54,1.204,3.522,2.186C53.286,28.985,54.308,31.437,54.308,34.144z"/>
	<path fill="#FFFFFF" d="M48.844,35.444c0.136-1.7-0.404-3.251-1.52-4.369c-0.202-0.202-0.422-0.383-0.655-0.544l-2.356,11.494
		c0.747-0.429,1.451-0.962,2.076-1.589C47.831,38.994,48.702,37.221,48.844,35.444z"/>
	<path fill="#FFFFFF" d="M4.588,55.803c-0.482-1.204-0.885-2.433-1.209-3.692l-1.451,7.081h4.266
		C5.589,58.1,5.053,56.97,4.588,55.803z"/>
	<path fill="#FFFFFF" d="M9.262,42.919c0-4.525,1.028-9.114,3.053-13.631c2.091-4.665,5.15-9.027,9.089-12.968
		c1.161-1.163,2.37-2.248,3.621-3.256h-6.557c-0.264,0.254-0.524,0.509-0.785,0.769c-3.639,3.639-6.617,7.594-8.881,11.792
		L4.174,48.227c0.327,2.432,0.938,4.777,1.831,7.01c0.548,1.372,1.2,2.691,1.95,3.956h6.828c-1.525-1.917-2.751-4.032-3.661-6.315
		C9.888,49.778,9.262,46.426,9.262,42.919z"/>
	<path fill="#FFFFFF" d="M13.486,66.573c-0.237,1.164-0.966,1.891-1.771,1.891c-0.499,0-0.962-0.219-0.968-0.822
		c-0.002-0.151,0.024-0.321,0.058-0.46l0.61-2.952h-0.557l-0.602,2.936c-0.041,0.209-0.067,0.395-0.067,0.537
		c0.009,0.877,0.598,1.232,1.394,1.232c0.683,0,1.281-0.427,1.623-0.965h0.017l-0.153,0.831h0.515l0.94-4.572h-0.557L13.486,66.573z
		"/>
	<polygon fill="#FFFFFF" points="1.788,62.987 5.424,62.987 5.533,62.473 1.288,62.473 0,68.801 4.327,68.801 4.436,68.29 
		0.712,68.29 1.222,65.789 4.609,65.789 4.719,65.273 1.322,65.273 	"/>
	<path fill="#FFFFFF" d="M9.663,62.473L9.14,65.09H9.122c-0.211-0.72-0.779-0.994-1.497-0.994c-1.536,0-2.486,1.568-2.473,2.97
		c0.011,1.118,0.582,1.87,1.755,1.87c0.806,0,1.272-0.356,1.656-0.96h0.02l-0.196,0.826h0.54l1.296-6.328L9.663,62.473L9.663,62.473
		z M6.958,68.464c-0.843,0-1.24-0.585-1.248-1.364c-0.011-1.118,0.64-2.534,1.926-2.534c0.815,0,1.282,0.524,1.29,1.321
		C8.938,67.016,8.24,68.464,6.958,68.464z"/>
	<path fill="#FFFFFF" d="M22.123,40.598c0,0.218,0.005,0.436,0.013,0.653h3.456c-0.056-0.524-0.086-1.056-0.086-1.596
		c0-3.144,0.955-6.359,2.704-9.285h-3.268C23.1,33.662,22.123,37.151,22.123,40.598z"/>
	<path fill="#FFFFFF" d="M37.59,30.37h-2.816c-2.295,2.515-3.6,5.561-3.6,8.454c0,0.851,0.108,1.66,0.319,2.426h2.717
		c-0.464-0.94-0.71-1.999-0.71-3.11c0-2.436,1.119-4.897,3.152-6.931C36.952,30.91,37.264,30.63,37.59,30.37z"/>
	<path fill="#FFFFFF" d="M27.033,39.656c0,0.544,0.033,1.076,0.093,1.596h2.797c-0.182-0.779-0.276-1.593-0.276-2.426
		c0-1.725,0.386-3.467,1.146-5.176c0.508-1.149,1.173-2.243,1.98-3.278h-2.758C28.091,33.264,27.033,36.505,27.033,39.656z"/>
	<path fill="#FFFFFF" d="M52.218,46.828c-2.95,2.951-6.487,4.941-10.061,5.727l-0.624,3.051c4.621-0.91,9.212-3.375,12.802-6.965
		c4.071-4.07,6.704-9.01,7.418-13.911c0.129-0.887,0.191-1.76,0.192-2.615c0-0.202-0.004-0.404-0.01-0.604
		c-0.144-3.982-1.704-7.547-4.601-10.445c-2.162-2.162-4.9-3.485-7.905-4.013l-0.692,3.38c2.231,0.553,4.217,1.651,5.823,3.255
		C60.487,29.617,59.48,39.566,52.218,46.828z"/>
	<path fill="#FFFFFF" d="M58.413,19.985c2.058,2.059,3.511,4.442,4.318,7.086c0.023,0.076,0.046,0.153,0.068,0.229l0.72-3.515h2.037
		c-0.964-2.446-2.426-4.658-4.353-6.589c-1.867-1.867-4.075-3.239-6.497-4.132h-4.46l-0.51,2.488
		c0.723,0.127,1.431,0.299,2.127,0.512C54.392,16.851,56.597,18.169,58.413,19.985z"/>
	<path fill="#FFFFFF" d="M67.187,23.784h5.197c-0.987-4.021-2.938-7.671-5.772-10.72h-8.328c1.466,0.837,2.804,1.857,4,3.052
		C64.505,18.341,66.153,20.917,67.187,23.784z"/>
	<path fill="#FFFFFF" d="M42.29,20.29l0.654-3.199c-4.464,0.774-9.024,3.038-12.848,6.694h4.166C36.731,22,39.48,20.798,42.29,20.29
		z"/>
	<path fill="#FFFFFF" d="M41.958,21.912c-1.667,0.369-3.308,1-4.866,1.872h4.484L41.958,21.912z"/>
	<path fill="#FFFFFF" d="M17.156,39.37c-0.59,6.246,1.412,12.015,5.635,16.24c1.504,1.502,3.273,2.704,5.269,3.583h6.232
		l0.394-1.891c-3.589-0.553-6.749-2.127-9.259-4.636c-1.291-1.289-2.341-2.782-3.128-4.417h-3.627l1.4-6.998h0.537
		c-0.008-0.217-0.013-0.433-0.013-0.653c0-3.448,0.903-6.927,2.615-10.227h-0.895l1.219-5.999
		C19.877,29.014,17.644,34.221,17.156,39.37z"/>
	<path fill="#FFFFFF" d="M36.568,48.259l0.004-0.011h-0.04H30.64c1.538,1.422,3.347,2.383,5.338,2.844L36.568,48.259z"/>
	<path fill="#FFFFFF" d="M17.38,64.566c0.657,0,1.148,0.409,1.111,1.089h0.558c0.024-1.062-0.732-1.559-1.725-1.559
		c-1.569,0-2.47,1.527-2.457,2.952c0.011,1.127,0.648,1.888,1.783,1.888c1.106,0,1.793-0.569,2.12-1.615h-0.557
		c-0.233,0.664-0.76,1.143-1.497,1.143c-0.868,0-1.28-0.603-1.288-1.417C15.417,65.857,16.042,64.566,17.38,64.566z"/>
	<path fill="#FFFFFF" d="M35.666,52.588c-2.436-0.553-4.632-1.772-6.46-3.599c-0.24-0.24-0.465-0.486-0.682-0.741h-4.508
		c0.666,1.224,1.501,2.346,2.491,3.338c2.291,2.291,5.19,3.722,8.49,4.214L35.666,52.588z"/>
	<polygon fill="#FFFFFF" points="43.576,68.801 44.137,68.801 45.079,64.23 44.519,64.23 	"/>
	<path fill="#FFFFFF" d="M54.1,62.847h-0.559l-0.279,1.383h-0.826l-0.102,0.468h0.826l-0.6,3.032
		c-0.042,0.202-0.06,0.374-0.06,0.469c0.005,0.55,0.437,0.658,0.85,0.658c0.187,0,0.382-0.018,0.57-0.034l0.092-0.49
		c-0.223,0.037-0.433,0.053-0.654,0.053c-0.213,0-0.293-0.158-0.293-0.318c-0.003-0.14,0.01-0.22,0.055-0.436l0.6-2.933h0.93
		l0.084-0.468h-0.914L54.1,62.847z"/>
	<polygon fill="#FFFFFF" points="45.441,62.473 44.883,62.473 44.696,63.369 45.255,63.369 	"/>
	<path fill="#FFFFFF" d="M56.262,59.193l1.046-5.093c-2.258,2.043-4.801,3.759-7.499,5.093H56.262z"/>
	<path fill="#FFFFFF" d="M48.301,64.175c-0.097-0.008-0.203-0.008-0.301-0.008c-0.816-0.008-1.3,0.459-1.647,1.116h-0.017
		l0.222-1.053h-0.506l-0.943,4.572h0.56l0.494-2.391c0.176-0.861,0.7-1.667,1.7-1.685c0.108,0,0.212,0.008,0.319,0.008
		L48.301,64.175z"/>
	<path fill="#FFFFFF" d="M50.29,64.564c0.63,0,1.124,0.303,1.081,1.003h0.561c0.009-1.056-0.688-1.474-1.647-1.474
		c-0.734,0-1.689,0.365-1.68,1.25c0.007,0.755,0.625,1.03,1.237,1.271c0.604,0.229,1.235,0.416,1.242,1.011
		c0.005,0.583-0.65,0.841-1.146,0.841c-0.645,0-1.306-0.269-1.3-1.151h-0.563c-0.041,1.14,0.858,1.62,1.736,1.62
		c0.867,0,1.839-0.374,1.831-1.401c-0.009-0.843-0.872-1.1-1.501-1.345c-0.518-0.207-0.971-0.42-0.975-0.845
		C49.158,64.717,49.806,64.564,50.29,64.564z"/>
	<path fill="#FFFFFF" d="M66.9,32.115h-3.43c0,0.931-0.065,1.878-0.206,2.836c-0.396,2.72-1.344,5.447-2.767,8.045h3.424
		c1.491-2.946,2.455-6.008,2.828-9.057C66.824,33.326,66.872,32.719,66.9,32.115z"/>
	<path fill="#FFFFFF" d="M75.848,13.064h-7.201c2.603,3.118,4.395,6.757,5.309,10.72h5.569c-0.342-2.38-0.95-4.68-1.814-6.865
		C77.181,15.581,76.56,14.295,75.848,13.064z"/>
	<path fill="#FFFFFF" d="M77.6,13.064c0.571,1.061,1.082,2.159,1.53,3.293c0.542,1.37,0.988,2.779,1.332,4.225L82,13.064H77.6z"/>
	<path fill="#FFFFFF" d="M73.065,32.115h-4.637c-0.026,0.666-0.081,1.334-0.162,2.008c-0.366,2.986-1.267,5.982-2.647,8.873h4.711
		c1.398-3.213,2.295-6.524,2.643-9.831C73.012,32.814,73.042,32.467,73.065,32.115z"/>
	<path fill="#FFFFFF" d="M74.493,33.325c-0.343,3.252-1.193,6.507-2.505,9.672h3.521l2.193-10.882h-3.107
		C74.569,32.518,74.534,32.922,74.493,33.325z"/>
	<path fill="#FFFFFF" d="M41.201,57.214l-0.404,1.978h5.131c4.215-1.521,8.194-4.011,11.443-7.263
		c0.163-0.161,0.322-0.327,0.48-0.49l1.273-6.202c-1.064,1.572-2.304,3.077-3.709,4.482C51.454,53.683,46.331,56.348,41.201,57.214z
		"/>
	<polygon fill="#FFFFFF" points="27.957,62.473 27.773,63.369 28.33,63.369 28.517,62.473 	"/>
	<polygon fill="#FFFFFF" points="26.656,68.801 27.21,68.801 28.153,64.23 27.592,64.23 	"/>
	<path fill="#FFFFFF" d="M23.526,65.115c-0.008-0.805-0.977-1.019-1.596-1.019c-0.985,0-1.778,0.46-1.92,1.498h0.558
		c0.108-0.764,0.718-1.028,1.427-1.028c0.429,0,0.967,0.115,0.972,0.66c0.005,0.598-0.179,0.806-0.537,0.892
		c-0.356,0.087-0.872,0.043-1.458,0.134c-0.813,0.14-1.579,0.448-1.571,1.414c0.009,0.895,0.643,1.27,1.475,1.27
		c0.64,0,1.264-0.311,1.583-0.841l0.013,0.017c-0.006,0.079-0.013,0.169-0.011,0.25c0.008,0.3,0.179,0.495,0.487,0.495
		c0.15,0,0.337-0.016,0.462-0.045l0.075-0.445c-0.079,0.011-0.141,0.019-0.221,0.019c-0.134,0-0.292-0.024-0.295-0.186
		c-0.003-0.276,0.092-0.513,0.285-1.542C23.343,66.252,23.532,65.56,23.526,65.115z M22.615,67.125
		c-0.168,0.799-0.735,1.339-1.627,1.339c-0.532,0-1.019-0.237-1.026-0.822c-0.009-0.958,1.115-0.99,1.797-1.048
		c0.282-0.021,0.83-0.036,1.006-0.256l0.019,0.018L22.615,67.125z"/>
	<polygon fill="#FFFFFF" points="40.648,62.988 44.098,62.988 44.195,62.473 40.148,62.473 38.854,68.801 39.455,68.801 
		40.074,65.789 43.147,65.789 43.24,65.273 40.182,65.273 	"/>
	<path fill="#FFFFFF" d="M30.968,64.096c-1.632,0-2.541,1.435-2.526,2.933c0.012,1.146,0.669,1.907,1.843,1.907
		c1.695,0,2.526-1.507,2.509-3.05C32.784,64.762,32.032,64.096,30.968,64.096z M30.389,68.464c-0.93,0-1.379-0.603-1.388-1.488
		c-0.011-1.072,0.653-2.411,1.875-2.411c0.895,0,1.353,0.586,1.361,1.437C32.247,67.066,31.611,68.464,30.389,68.464z"/>
	<path fill="#FFFFFF" d="M37.733,32.29c-1.746,1.746-2.707,3.822-2.707,5.851c0,1.172,0.329,2.232,0.956,3.109h1.635l2.117-10.503
		C39.024,31.158,38.345,31.676,37.733,32.29z"/>
	<path fill="#FFFFFF" d="M36.032,64.096c-0.682,0-1.282,0.424-1.622,0.966h-0.013l0.148-0.832h-0.513l-0.94,4.572h0.561l0.481-2.346
		c0.237-1.161,0.965-1.889,1.774-1.889c0.495,0,0.957,0.221,0.964,0.825c0,0.15-0.026,0.318-0.057,0.46l-0.612,2.95h0.56
		l0.602-2.931c0.045-0.216,0.064-0.4,0.063-0.545C37.417,64.451,36.829,64.096,36.032,64.096z"/>
	<path fill="#FFFFFF" d="M25.995,62.847h-0.56l-0.277,1.383h-0.824l-0.105,0.469h0.827l-0.603,3.031
		c-0.04,0.205-0.055,0.373-0.055,0.47c0.005,0.552,0.432,0.657,0.848,0.657c0.186,0,0.382-0.016,0.567-0.037l0.095-0.487
		c-0.221,0.034-0.434,0.053-0.657,0.053c-0.209,0-0.292-0.158-0.294-0.317c-0.002-0.144,0.013-0.222,0.059-0.436l0.598-2.934h0.934
		l0.082-0.469h-0.914L25.995,62.847z"/>
</g>
</svg>
